<svg width="207" height="28" viewBox="0 0 207 28" fill="none" xmlns="http://www.w3.org/2000/svg">
<g clip-path="url(#clip0_327_1965)">
<mask id="mask0_327_1965" style="mask-type:luminance" maskUnits="userSpaceOnUse" x="0" y="0" width="103" height="28">
<path d="M102.5 0H0.5V28H102.5V0Z" fill="white"/>
</mask>
<g mask="url(#mask0_327_1965)">
<path d="M28.6801 19.0599C27.6348 19.0017 26.6187 18.6934 25.7173 18.1609C24.8159 17.6285 24.0555 16.8874 23.5001 15.9999C24.1701 10.6599 26.1201 8.99994 28.7001 8.99994C31.2801 8.99994 33.2401 10.9999 33.2401 13.9999C33.2401 16.9999 31.2401 18.9999 28.7001 18.9999M28.7001 5.65994C26.8793 5.58616 25.0906 6.15465 23.6465 7.26604C22.2025 8.37743 21.1949 9.961 20.8001 11.7399C19.9441 9.94652 19.2965 8.06087 18.8701 6.11994H12.5001V14.0199C12.5001 16.8899 11.2001 19.0199 8.65008 19.0199C6.10008 19.0199 4.65008 16.8999 4.65008 14.0199V6.11994H0.990084V14.0199C0.907019 16.2091 1.66158 18.3476 3.10008 19.9999C3.80222 20.7644 4.65993 21.3697 5.61552 21.7751C6.5711 22.1804 7.60242 22.3764 8.64008 22.3499C13.0501 22.3499 16.1401 18.9599 16.1401 14.1099V8.76994C16.889 11.6434 18.1271 14.3666 19.8001 16.8199L17.8401 27.9999H21.5601L22.8501 20.0799C23.2771 20.4476 23.7318 20.7819 24.2101 21.0799C25.4528 21.8648 26.8812 22.3065 28.3501 22.3599H28.6901C29.7827 22.3713 30.8664 22.1615 31.8758 21.743C32.8853 21.3246 33.7996 20.7063 34.5638 19.9253C35.328 19.1442 35.9263 18.2167 36.3227 17.1984C36.719 16.1801 36.9052 15.0921 36.8701 13.9999C36.8956 12.9118 36.7021 11.8297 36.301 10.8178C35.9 9.80594 35.2996 8.88503 34.5356 8.10982C33.7716 7.33461 32.8595 6.72091 31.8536 6.3052C30.8477 5.88949 29.7685 5.68026 28.6801 5.68994" fill="#14A800"/>
<path d="M81.3002 7.85995V6.17995H77.7002V21.81H81.3502V15.69C81.3502 11.92 81.6902 9.20995 86.7502 9.55995V5.99995C84.3902 5.81995 82.5502 6.30995 81.3002 7.86995" fill="#14A800"/>
<path d="M56.0098 6.16992L53.3698 17.1099L50.5498 6.16992H45.9098L43.0898 17.1099L40.4498 6.16992H36.7598L40.8098 21.8199H45.1898L48.2298 10.7099L51.2398 21.8199H55.6198L59.8998 6.16992H56.0098Z" fill="#14A800"/>
<path d="M67.9201 19.07C65.3301 19.07 63.3901 17.02 63.3901 14.07C63.3901 11.12 65.3901 9.06997 67.9201 9.06997C70.4501 9.06997 72.5001 11 72.5001 14C72.5001 17 70.5001 19 67.9601 19M67.9601 5.64997C66.8658 5.63458 65.7798 5.84111 64.7675 6.25709C63.7552 6.67306 62.8377 7.28985 62.0705 8.07023C61.3032 8.8506 60.702 9.77838 60.3032 10.7975C59.9044 11.8167 59.7162 12.9061 59.7501 14C59.7117 15.0976 59.8948 16.1917 60.2883 17.217C60.6818 18.2424 61.2778 19.178 62.0407 19.9681C62.8037 20.7581 63.7179 21.3865 64.7288 21.8156C65.7398 22.2448 66.8268 22.4659 67.9251 22.4659C69.0234 22.4659 70.1104 22.2448 71.1214 21.8156C72.1324 21.3865 73.0466 20.7581 73.8095 19.9681C74.5724 19.178 75.1684 18.2424 75.5619 17.217C75.9555 16.1917 76.1385 15.0976 76.1001 14C76.127 12.9123 75.9347 11.8304 75.5348 10.8186C75.1349 9.80676 74.5355 8.88576 73.7723 8.1104C73.009 7.33504 72.0976 6.72117 71.0922 6.30535C70.0868 5.88953 69.0081 5.68025 67.9201 5.68997" fill="#14A800"/>
<path d="M91.9703 14.13H92.8103L97.9003 21.82H102.01L96.1603 13.29C97.5673 12.7098 98.7696 11.7237 99.6138 10.4574C100.458 9.19104 100.906 7.70193 100.9 6.18H97.2703C97.2703 9.55 94.6103 10.83 91.9703 10.83V0H88.3203V21.82H91.9603L91.9703 14.13Z" fill="#14A800"/>
</g>
</g>
<defs>
<clipPath id="clip0_327_1965">
<rect width="102" height="28" fill="white" transform="translate(0.5)"/>
</clipPath>
</defs>
</svg>
