<svg width="65" height="64" viewBox="0 0 65 64" fill="none" xmlns="http://www.w3.org/2000/svg">
<g clip-path="url(#clip0_327_1899)">
<path d="M64.7593 49.59C62.4313 50.182 60.9913 49.616 59.6993 47.676L50.5113 34.964L49.1833 33.204L38.4533 47.718C37.2273 49.464 35.9413 50.224 33.6533 49.606L47.3933 31.162L34.6013 14.502C36.8013 14.074 38.3213 14.292 39.6713 16.262L49.2013 29.132L58.8013 16.332C60.0313 14.586 61.3533 13.922 63.5613 14.566L58.6013 21.142L51.8813 29.892C51.0813 30.892 51.1913 31.576 51.9273 32.542L64.7593 49.59ZM0.775277 30.854L1.89928 25.326C4.95928 14.386 17.4993 9.84002 26.1473 16.6C31.2013 20.576 32.4573 26.2 32.2073 32.5H3.71928C3.29128 43.84 11.4533 50.684 21.8593 47.192C25.5093 45.966 27.6593 43.108 28.7353 39.532C29.2813 37.74 30.1853 37.46 31.8693 37.972C31.0093 42.444 29.0693 46.18 24.9693 48.518C18.8433 52.018 10.0993 50.886 5.49928 46.022C2.75928 43.2 1.62728 39.624 1.11928 35.8C1.03928 35.168 0.879277 34.566 0.759277 33.96C0.769944 32.9254 0.775277 31.8907 0.775277 30.856V30.854ZM3.77128 30.094H29.5153C29.3473 21.894 24.2413 16.07 17.2633 16.02C9.60328 15.96 4.10328 21.646 3.77128 30.094Z" fill="#F9FAFB"/>
</g>
<defs>
<clipPath id="clip0_327_1899">
<rect width="64" height="64" fill="white" transform="translate(0.759277)"/>
</clipPath>
</defs>
</svg>
