<svg width="65" height="64" viewBox="0 0 65 64" fill="none" xmlns="http://www.w3.org/2000/svg">
<g clip-path="url(#clip0_327_1871)">
<path d="M61.5884 0H3.58838C1.93152 0 0.588379 1.34315 0.588379 3V61C0.588379 62.6569 1.93152 64 3.58838 64H61.5884C63.2452 64 64.5884 62.6569 64.5884 61V3C64.5884 1.34315 63.2452 0 61.5884 0Z" fill="#3178C6"/>
<path fill-rule="evenodd" clip-rule="evenodd" d="M37.7195 49.734V56.747C38.8557 57.331 40.1994 57.7695 41.7507 58.0615C43.3021 58.354 44.9371 58.5 46.656 58.5C48.3311 58.5 49.9225 58.3395 51.4299 58.018C52.9379 57.6965 54.2594 57.167 55.3959 56.429C56.5319 55.691 57.4314 54.727 58.0944 53.536C58.7569 52.3455 59.0884 50.8735 59.0884 49.1203C59.0884 47.8493 58.8989 46.7353 58.5204 45.7783C58.1414 44.8214 57.5954 43.9704 56.8814 43.2252C56.1679 42.4801 55.3119 41.8117 54.3144 41.22C53.3164 40.6283 52.1914 40.0694 50.9384 39.5435C50.0208 39.1636 49.1978 38.7947 48.4695 38.4368C47.7411 38.0788 47.1221 37.7136 46.6123 37.341C46.1024 36.9684 45.7091 36.574 45.4324 36.1576C45.1556 35.7413 45.0172 35.27 45.0172 34.7441C45.0172 34.2619 45.141 33.8273 45.3887 33.4402C45.6363 33.053 45.9859 32.7206 46.4375 32.443C46.889 32.1655 47.4425 31.95 48.098 31.7966C48.7535 31.6431 49.4818 31.5664 50.283 31.5664C50.8659 31.5664 51.4809 31.6103 52.1294 31.6979C52.7774 31.7856 53.4294 31.9207 54.0849 32.1034C54.7404 32.286 55.3774 32.5161 55.9969 32.7937C56.6159 33.0713 57.1874 33.3927 57.7119 33.7579V27.2054C56.6484 26.7963 55.4869 26.4931 54.2269 26.2959C52.9669 26.0986 51.5214 26 49.8897 26C48.2291 26 46.656 26.1789 45.1702 26.5369C43.6844 26.8948 42.3771 27.4537 41.2482 28.2134C40.1193 28.9731 39.2271 29.941 38.5716 31.1171C37.9161 32.2932 37.5884 33.6995 37.5884 35.3358C37.5884 37.4251 38.1892 39.2074 39.391 40.683C40.5927 42.1587 42.4171 43.4079 44.8643 44.4305C45.8257 44.825 46.7215 45.2122 47.5518 45.592C48.3821 45.9719 49.0995 46.3664 49.704 46.7755C50.3085 47.1846 50.7854 47.6302 51.1349 48.1123C51.4849 48.5944 51.6594 49.1423 51.6594 49.7559C51.6594 50.209 51.5504 50.629 51.3319 51.016C51.1134 51.403 50.7819 51.739 50.3376 52.024C49.8933 52.309 49.3398 52.532 48.677 52.6925C48.0143 52.853 47.2386 52.9335 46.3501 52.9335C44.8351 52.9335 43.3348 52.667 41.849 52.1335C40.3633 51.6005 38.9868 50.8005 37.7195 49.734ZM25.9397 32.2772H35.0884V26.5H9.58838V32.2772H18.6923V58H25.9397V32.2772Z" fill="white"/>
</g>
<defs>
<clipPath id="clip0_327_1871">
<rect width="64" height="64" fill="white" transform="translate(0.588379)"/>
</clipPath>
</defs>
</svg>
