<svg width="57" height="64" viewBox="0 0 57 64" fill="none" xmlns="http://www.w3.org/2000/svg">
<g clip-path="url(#clip0_327_1894)">
<path d="M28.7701 64C27.9122 64 27.1114 63.7668 26.3678 63.3586L18.7605 58.7517C17.6166 58.1102 18.1885 57.877 18.5317 57.7603C20.0761 57.2355 20.362 57.1189 21.9636 56.1859C22.1352 56.0692 22.3639 56.1275 22.5355 56.2442L28.3697 59.8014C28.5986 59.918 28.8845 59.918 29.0561 59.8014L51.8781 46.3307C52.1069 46.214 52.2212 45.9808 52.2212 45.6892V18.806C52.2212 18.5145 52.1069 18.2812 51.8781 18.1646L29.0561 4.75223C28.8273 4.63561 28.5413 4.63561 28.3697 4.75223L5.54779 18.1646C5.319 18.2812 5.2046 18.5728 5.2046 18.806V45.6892C5.2046 45.9224 5.319 46.214 5.54779 46.3307L11.7824 50.0045C15.157 51.7539 17.2733 49.7129 17.2733 47.6719V21.1386C17.2733 20.7888 17.5594 20.4389 17.9597 20.4389H20.8769C21.22 20.4389 21.5632 20.7305 21.5632 21.1386V47.6719C21.5632 52.2788 19.1036 54.9613 14.8138 54.9613C13.4983 54.9613 12.4688 54.9613 9.55161 53.5034L3.54586 50.0045C2.05872 49.1297 1.14355 47.4969 1.14355 45.7475V18.8644C1.14355 17.115 2.05872 15.4822 3.54586 14.6074L26.3678 1.13672C27.7978 0.320313 29.7425 0.320313 31.1725 1.13672L53.9944 14.6074C55.4815 15.4822 56.3967 17.115 56.3967 18.8644V45.7475C56.3967 47.4969 55.4815 49.1297 53.9944 50.0045L31.1725 63.4752C30.4861 63.7668 29.6281 64 28.7701 64Z" fill="#5FA04E"/>
<path d="M35.8627 45.5142C25.853 45.5142 23.7939 40.849 23.7939 36.8836C23.7939 36.5337 24.0799 36.1839 24.4803 36.1839H27.4546C27.7977 36.1839 28.0838 36.4171 28.0838 36.767C28.5413 39.8576 29.8569 41.3738 35.9199 41.3738C40.7245 41.3738 42.7836 40.2658 42.7836 37.6417C42.7836 36.1255 42.2116 35.0175 34.7187 34.2594C28.4841 33.6179 24.5947 32.2184 24.5947 27.145C24.5947 22.4215 28.4841 19.6224 35.0047 19.6224C42.326 19.6224 45.9295 22.1883 46.3871 27.7865C46.3871 27.9615 46.3299 28.1364 46.2155 28.3114C46.1011 28.4279 45.9295 28.5446 45.7579 28.5446H42.7264C42.4404 28.5446 42.1544 28.3114 42.0972 28.0197C41.4108 24.8124 39.6377 23.7627 34.9475 23.7627C29.6853 23.7627 29.0561 25.6289 29.0561 27.0284C29.0561 28.7195 29.7997 29.2444 36.8922 30.1774C43.9276 31.1104 47.245 32.4517 47.245 37.4668C47.245 42.5984 43.0696 45.5142 35.8627 45.5142Z" fill="#5FA04E"/>
</g>
<defs>
<clipPath id="clip0_327_1894">
<rect width="56.32" height="64" fill="white" transform="translate(0.510742)"/>
</clipPath>
</defs>
</svg>
