<svg width="65" height="64" viewBox="0 0 65 64" fill="none" xmlns="http://www.w3.org/2000/svg">
<path d="M53.2341 34.608C51.1835 34.6187 49.4075 35.1107 47.9195 35.8454C47.3755 34.7587 46.8235 33.8027 46.7315 33.092C46.6235 32.2627 46.4981 31.7667 46.6288 30.7787C46.7595 29.7907 47.3315 28.3907 47.3235 28.2854C47.3155 28.18 47.1955 27.6774 46.0128 27.668C44.8301 27.66 43.8181 27.896 43.6995 28.208C43.5808 28.52 43.3528 29.2227 43.2115 29.956C43.0048 31.028 40.8501 34.8534 39.6275 36.8534C39.2275 36.072 38.8875 35.384 38.8168 34.84C38.7088 34.0107 38.5835 33.5147 38.7141 32.5267C38.8448 31.5387 39.4168 30.1387 39.4088 30.0334C39.4008 29.928 39.2808 29.4254 38.0981 29.416C36.9155 29.408 35.9035 29.644 35.7848 29.956C35.6661 30.268 35.5381 30.9974 35.2968 31.704C35.0541 32.4094 32.1915 38.7894 31.4408 40.444C31.0581 41.2867 30.7261 41.964 30.4915 42.4254L30.4901 42.4227C30.4901 42.4227 30.4755 42.4534 30.4515 42.5054C30.2501 42.8987 30.1315 43.116 30.1315 43.116C30.1315 43.116 30.1328 43.1187 30.1355 43.124C29.9755 43.4134 29.8048 43.6814 29.7208 43.6814C29.6621 43.6814 29.5435 42.912 29.7461 41.856C30.1728 39.6427 31.1955 36.192 31.1861 36.072C31.1808 36.0107 31.3768 35.4094 30.5181 35.0947C29.6835 34.7894 29.3861 35.2987 29.3101 35.3C29.2368 35.3014 29.1821 35.48 29.1821 35.48C29.1821 35.48 30.1115 31.5987 27.4088 31.5987C25.7181 31.5987 23.3768 33.448 22.2235 35.124C21.4955 35.5214 19.9368 36.372 18.2848 37.28C17.6501 37.6294 17.0021 37.9854 16.3875 38.324C16.3461 38.2774 16.3035 38.232 16.2608 38.1854C12.9821 34.688 6.92347 32.2147 7.17947 27.512C7.2728 25.8027 7.86747 21.3014 18.8235 15.8427C27.7981 11.3707 34.9835 12.6014 36.2248 15.328C37.9981 19.2254 32.3848 26.4667 23.0648 27.512C19.5141 27.9107 17.6435 26.5334 17.1781 26.0214C16.6888 25.4814 16.6155 25.4574 16.4328 25.5587C16.1355 25.724 16.3235 26.2 16.4328 26.484C16.7115 27.208 17.8528 28.492 19.7995 29.132C21.5128 29.6947 25.6821 30.0027 30.7235 28.052C36.3715 25.868 40.7808 19.7907 39.4848 14.712C38.1675 9.5467 29.6021 7.84803 21.4955 10.728C16.6648 12.4427 11.4421 15.1334 7.68614 18.6454C3.2208 22.8214 2.5088 26.4574 2.80214 27.976C3.8448 33.3734 11.2835 36.888 14.2621 39.492C14.1155 39.5734 13.9768 39.6494 13.8515 39.7187C12.3581 40.4574 6.68747 43.4254 5.2688 46.56C3.65947 50.116 5.5248 52.668 6.75947 53.012C10.5848 54.076 14.5101 52.1614 16.6208 49.0147C18.7301 45.8694 18.4728 41.772 17.5048 39.9027C17.4928 39.88 17.4795 39.8574 17.4675 39.8334C17.8528 39.6054 18.2461 39.3734 18.6355 39.144C19.3955 38.6974 20.1421 38.2814 20.7888 37.9294C20.4261 38.9214 20.1608 40.112 20.0235 41.8307C19.8608 43.8494 20.6888 46.4587 21.7715 47.4854C22.2488 47.9374 22.8221 47.948 23.1848 47.948C24.4448 47.948 25.0195 46.9 25.6528 45.66C26.4288 44.14 27.1181 42.3694 27.1181 42.3694C27.1181 42.3694 26.2541 47.1507 28.6088 47.1507C29.4675 47.1507 30.3301 46.0374 30.7155 45.4707C30.7168 45.4774 30.7168 45.48 30.7168 45.48C30.7168 45.48 30.7395 45.4427 30.7835 45.3694C30.8728 45.2334 30.9235 45.1467 30.9235 45.1467C30.9235 45.1467 30.9248 45.1374 30.9275 45.1214C31.2728 44.5227 32.0381 43.1574 33.1848 40.9054C34.6675 37.996 36.0888 34.3507 36.0888 34.3507C36.0888 34.3507 36.2208 35.2414 36.6541 36.716C36.9088 37.5827 37.4501 38.5414 37.8781 39.4614C37.5341 39.9387 37.3235 40.212 37.3235 40.212C37.3235 40.212 37.3248 40.2174 37.3288 40.2267C37.0541 40.592 36.7461 40.9854 36.4235 41.3694C35.2528 42.7627 33.8595 44.3547 33.6728 44.8134C33.4528 45.3547 33.5048 45.752 33.9301 46.0734C34.2408 46.3067 34.7928 46.344 35.3701 46.3054C36.4221 46.2347 37.1608 45.9734 37.5261 45.8147C38.0955 45.6134 38.7581 45.2974 39.3795 44.84C40.5275 43.996 41.2195 42.7894 41.1528 41.1894C41.1155 40.308 40.8355 39.4347 40.4795 38.6107C40.5835 38.4614 40.6875 38.3094 40.7928 38.1574C42.6021 35.512 44.0061 32.6054 44.0061 32.6054C44.0061 32.6054 44.1381 33.496 44.5715 34.9707C44.7901 35.716 45.2235 36.5307 45.6128 37.328C43.9115 38.7107 42.8568 40.3174 42.4901 41.3707C41.8128 43.32 42.3435 44.2027 43.3381 44.404C43.7888 44.4947 44.4261 44.288 44.9048 44.0854C45.5008 43.888 46.2168 43.5587 46.8861 43.0667C48.0341 42.2227 49.1381 41.0414 49.0715 39.4427C49.0408 38.7147 48.8435 37.992 48.5755 37.2987C50.0181 36.6974 51.8848 36.364 54.2635 36.6414C59.3661 37.2374 60.3661 40.4227 60.1755 41.756C59.9835 43.0894 58.9141 43.8227 58.5555 44.044C58.1981 44.2654 58.0888 44.3427 58.1181 44.5067C58.1621 44.7454 58.3275 44.7374 58.6328 44.6854C59.0528 44.6147 61.3115 43.6014 61.4088 41.14C61.5301 38.012 58.5368 34.58 53.2341 34.608ZM13.9048 47.8667C12.2141 49.7107 9.85414 50.4067 8.8408 49.82C7.74747 49.1867 8.1808 46.472 10.2541 44.5147C11.5181 43.3227 13.1501 42.224 14.2328 41.548C14.4795 41.4 14.8408 41.1827 15.2808 40.9187C15.3541 40.8774 15.3955 40.8547 15.3955 40.8547L15.3941 40.852C15.4795 40.8014 15.5661 40.7494 15.6555 40.6947C16.4115 43.48 15.6795 45.932 13.9048 47.8667ZM26.2181 39.4974C25.6301 40.932 24.3981 44.604 23.6475 44.4067C23.0035 44.2374 22.6115 41.4467 23.5195 38.7C23.9755 37.3174 24.9515 35.6654 25.5248 35.024C26.4475 33.992 27.4635 33.6547 27.7101 34.0734C28.0235 34.6067 26.5875 38.5974 26.2181 39.4974ZM36.3901 44.3507C36.1408 44.4814 35.9115 44.5627 35.8061 44.5C35.7275 44.4534 35.9088 44.2814 35.9088 44.2814C35.9088 44.2814 37.1808 42.912 37.6821 42.2894C37.9741 41.9267 38.3115 41.496 38.6795 41.016C38.6821 41.064 38.6835 41.112 38.6835 41.1587C38.6808 42.7987 37.0968 43.9054 36.3901 44.3507ZM44.2261 42.564C44.0395 42.432 44.0715 42.004 44.6835 40.6694C44.9235 40.1454 45.4728 39.264 46.4248 38.4214C46.5355 38.768 46.6021 39.1 46.6008 39.4094C46.5888 41.4734 45.1168 42.244 44.2261 42.564Z" fill="#F06292"/>
</svg>
