<svg width="25" height="24" viewBox="0 0 25 24" fill="none" xmlns="http://www.w3.org/2000/svg">
<path d="M15.4998 22V18C15.6389 16.7473 15.2797 15.4901 14.4998 14.5C17.4998 14.5 20.4998 12.5 20.4998 9C20.5798 7.75 20.2298 6.52 19.4998 5.5C19.7798 4.35 19.7798 3.15 19.4998 2C19.4998 2 18.4998 2 16.4998 3.5C13.8598 3 11.1398 3 8.49979 3.5C6.49979 2 5.49979 2 5.49979 2C5.19979 3.15 5.19979 4.35 5.49979 5.5C4.77167 6.51588 4.41827 7.75279 4.49979 9C4.49979 12.5 7.49979 14.5 10.4998 14.5C10.1098 14.99 9.81979 15.55 9.64979 16.15C9.47979 16.75 9.42979 17.38 9.49979 18V22" stroke="#D1D5DB" stroke-width="2" stroke-linecap="round" stroke-linejoin="round"/>
<path d="M9.5 18C4.99 20 4.5 16 2.5 16" stroke="#D1D5DB" stroke-width="2" stroke-linecap="round" stroke-linejoin="round"/>
</svg>
