<svg width="67" height="64" viewBox="0 0 67 64" fill="none" xmlns="http://www.w3.org/2000/svg">
<path fill-rule="evenodd" clip-rule="evenodd" d="M38.6344 1.06177C38.1827 1.06177 37.7631 1.15886 37.3759 1.2883C38.1988 1.83845 38.6506 2.5666 38.8765 3.39183C38.8926 3.50509 38.9249 3.586 38.941 3.69926C38.9572 3.79635 38.9733 3.89344 38.9733 3.99053C39.0378 5.41445 38.6022 5.59244 38.2956 6.43385C37.8277 7.51798 37.9568 8.68301 38.5215 9.6215C38.5699 9.73477 38.6344 9.86421 38.7151 9.97748C38.102 5.8837 41.5065 5.26882 42.1357 3.99053C42.1841 2.87404 41.2644 2.12971 40.5384 1.61192C39.8446 1.19122 39.2153 1.06177 38.6344 1.06177ZM43.7654 1.98408C43.7008 2.35624 43.7492 2.25916 43.7331 2.45333C43.717 2.58278 43.717 2.74459 43.7009 2.87404C43.6686 3.00348 43.6363 3.13293 43.5879 3.26238C43.5557 3.39183 43.5073 3.52128 43.4589 3.65072C43.3943 3.78018 43.3459 3.89344 43.2814 4.02288C43.233 4.08764 43.2007 4.15233 43.1523 4.21706C43.12 4.2656 43.0877 4.31414 43.0555 4.36269C42.9748 4.47596 42.8941 4.58922 42.8135 4.6863C42.7166 4.78339 42.636 4.89666 42.523 4.97757V4.99377C42.4262 5.07467 42.3294 5.17176 42.2165 5.25266C41.8776 5.51155 41.4904 5.70573 41.1354 5.94844C41.0225 6.02935 40.9095 6.09407 40.8127 6.19116C40.6998 6.27206 40.603 6.35296 40.5061 6.45005C40.3932 6.54714 40.3125 6.64423 40.2157 6.75749C40.135 6.85458 40.0382 6.96784 39.9737 7.08111C39.893 7.19438 39.8123 7.30765 39.7478 7.42091C39.6832 7.55035 39.6349 7.66363 39.5703 7.79307C39.5219 7.92252 39.4735 8.03579 39.4412 8.16523C39.3928 8.31086 39.3606 8.44031 39.3283 8.56976C39.3121 8.63451 39.3121 8.71539 39.296 8.78011C39.2799 8.84486 39.2799 8.90956 39.2638 8.97429C39.2638 9.10373 39.2476 9.24936 39.2476 9.37881C39.2476 9.47589 39.2476 9.57298 39.2638 9.67007C39.2638 9.79951 39.28 9.92896 39.3122 10.0746C39.3284 10.204 39.3606 10.3335 39.3929 10.4629C39.4413 10.5924 39.4736 10.7218 39.522 10.8513C39.5542 10.9322 39.6026 11.0131 39.6349 11.0778L35.9239 9.6377C35.2946 9.45971 34.6815 9.29791 34.0522 9.15228C33.7134 9.07137 33.3745 8.99046 33.0357 8.90956C32.0676 8.71539 31.0833 8.56976 30.0991 8.47268C30.0669 8.47268 30.0507 8.45647 30.0184 8.45647C29.0503 8.35939 28.0984 8.31085 27.1303 8.31085C26.4203 8.31085 25.7104 8.34318 25.0166 8.39175C24.0323 8.4565 23.0481 8.58592 22.0639 8.74773C21.8218 8.78007 21.5798 8.82864 21.3378 8.87718C20.8376 8.97426 20.3535 9.08753 19.8856 9.2008C19.6436 9.26555 19.4016 9.33025 19.1595 9.39497C18.9175 9.49205 18.6916 9.60532 18.4657 9.70241C18.2882 9.78331 18.1108 9.86422 17.9333 9.94513C17.901 9.96133 17.8687 9.96133 17.8526 9.97746C17.6913 10.0584 17.546 10.1231 17.4008 10.204C17.3524 10.2202 17.3201 10.2363 17.2879 10.2525C17.1104 10.3334 16.9329 10.4305 16.7877 10.5114C16.6747 10.56 16.5618 10.6247 16.465 10.6732C16.4166 10.7056 16.352 10.738 16.3198 10.7541C16.1746 10.8351 16.0293 10.916 15.9003 10.9969C15.7551 11.0778 15.626 11.1587 15.513 11.2396C15.4001 11.3205 15.2871 11.3852 15.1903 11.4661C15.1742 11.4823 15.1581 11.4823 15.1419 11.4984C15.0451 11.5632 14.9322 11.6441 14.8354 11.725C14.8354 11.725 14.8192 11.7412 14.8031 11.7573C14.7224 11.8221 14.6418 11.8868 14.5611 11.9515C14.5288 11.9677 14.4965 12 14.4643 12.0162C14.3836 12.081 14.3029 12.1619 14.2223 12.2266C14.2061 12.2589 14.1738 12.2751 14.1577 12.2913C14.0609 12.3884 13.9641 12.4693 13.8673 12.5664C13.8511 12.5664 13.8511 12.5826 13.835 12.5988C13.7382 12.6797 13.6414 12.7767 13.5446 12.8738C13.5284 12.89 13.5284 12.9062 13.5123 12.9062C13.4317 12.9871 13.351 13.068 13.2703 13.1651C13.2381 13.1974 13.1896 13.2298 13.1574 13.2621C13.0767 13.3592 12.9799 13.4563 12.8831 13.5534C12.8669 13.5857 12.8347 13.6019 12.8185 13.6343C12.6894 13.7638 12.5765 13.8932 12.4474 14.0227C12.4312 14.0389 12.4152 14.055 12.399 14.0712C12.1408 14.3463 11.8665 14.6213 11.5761 14.8641C11.2857 15.123 10.9791 15.3657 10.6725 15.576C10.3498 15.8026 10.0433 15.9967 9.70444 16.1909C9.38174 16.3689 9.0429 16.5307 8.68793 16.6763C8.34909 16.822 7.99413 16.9514 7.63916 17.0647C6.96148 17.2103 6.26768 17.4854 5.67068 17.5339C5.5416 17.5339 5.39638 17.5663 5.26731 17.5825C5.12209 17.6148 4.99301 17.6472 4.86393 17.6796C4.73485 17.7281 4.60577 17.7766 4.47669 17.8252C4.34761 17.8737 4.21853 17.9384 4.08945 18.0032C3.9765 18.0841 3.84743 18.1488 3.73448 18.2297C3.62154 18.3106 3.50859 18.4077 3.41178 18.5048C3.29883 18.5857 3.18589 18.699 3.08908 18.796C2.99226 18.9093 2.89545 19.0064 2.81478 19.1197C2.73411 19.2491 2.6373 19.3624 2.57275 19.4918C2.49208 19.6051 2.41141 19.7345 2.34686 19.864C2.2823 20.0096 2.21778 20.1391 2.16938 20.2847C2.12097 20.4141 2.07257 20.5598 2.02416 20.7054C1.99192 20.8348 1.9596 20.9643 1.94349 21.0937C1.94349 21.11 1.92733 21.1261 1.92733 21.1423C1.89508 21.2879 1.89508 21.4821 1.87892 21.5792C1.86276 21.6924 1.84668 21.7895 1.84668 21.9028C1.84668 21.9675 1.84668 22.0484 1.86284 22.1131C1.879 22.2264 1.89508 22.3235 1.92741 22.4206C1.95965 22.5177 1.99197 22.6147 2.04035 22.7118V22.728C2.08875 22.8251 2.15329 22.9222 2.21783 23.0193C2.2824 23.1164 2.34692 23.2135 2.42759 23.3106C2.50826 23.3915 2.60507 23.4885 2.70188 23.5695C2.7987 23.6665 2.89551 23.7474 3.00845 23.8283C3.39569 24.1681 3.4925 24.2814 3.99269 24.5403C4.07336 24.5889 4.15404 24.6212 4.25085 24.6698C4.26702 24.6698 4.2831 24.686 4.29926 24.686C4.29926 24.7183 4.29926 24.7345 4.31542 24.7669C4.33158 24.8963 4.36383 25.0258 4.39609 25.1552C4.42834 25.3008 4.47677 25.4303 4.52518 25.5436C4.57359 25.6406 4.60585 25.7377 4.65426 25.8348C4.67042 25.8672 4.6865 25.8996 4.70266 25.9157C4.76723 26.0452 4.83174 26.1584 4.89628 26.2717C4.97696 26.385 5.05763 26.4982 5.13831 26.6115C5.21898 26.7086 5.31579 26.8219 5.4126 26.9189C5.50941 27.016 5.60622 27.0969 5.71917 27.194C5.71917 27.194 5.73533 27.2102 5.75142 27.2102C5.84823 27.2911 5.94504 27.3721 6.04185 27.4368C6.15479 27.5177 6.26774 27.5824 6.39682 27.6471C6.50977 27.7119 6.63884 27.7766 6.76792 27.8251C6.86473 27.8737 6.97767 27.906 7.09062 27.9384C7.10679 27.9546 7.12287 27.9546 7.15519 27.9707C7.21976 27.987 7.3004 28.0031 7.36494 28.0193C7.31654 28.893 7.30037 29.7183 7.42951 30.0095C7.57472 30.3331 8.28466 29.3461 8.9946 28.2134C8.89779 29.3299 8.83325 30.6406 8.9946 31.0289C9.17209 31.4334 10.1402 30.1713 10.9792 28.7798C22.4189 26.1261 32.8583 34.0548 33.9555 45.252C33.7457 43.5044 31.5998 42.5336 30.6156 42.7763C30.1315 43.9737 29.3086 45.5109 27.9855 46.4656C28.0985 45.3976 28.0501 44.2973 27.8242 43.2294C27.4692 44.718 26.7754 46.1096 25.8234 47.307C24.2906 47.4202 22.7578 46.6759 21.951 45.5594C21.8865 45.5109 21.8704 45.4138 21.8219 45.3491C21.7735 45.2358 21.7251 45.1226 21.6929 45.0093C21.6445 44.896 21.6122 44.7827 21.5961 44.6695C21.5799 44.5562 21.5799 44.4429 21.5799 44.3135C21.5799 44.2326 21.5799 44.1517 21.5799 44.0708C21.5961 43.9575 21.6283 43.8442 21.6606 43.731C21.6928 43.6177 21.7251 43.5044 21.7735 43.3912C21.8381 43.2779 21.8865 43.1646 21.9671 43.0514C22.2414 42.2747 22.2414 41.6436 21.7413 41.2715C21.6444 41.2067 21.5476 41.1582 21.4347 41.1097C21.3701 41.0935 21.2895 41.0611 21.2249 41.0449C21.1765 41.0287 21.1443 41.0126 21.0959 40.9964C20.9829 40.964 20.87 40.9316 20.757 40.9155C20.6441 40.8831 20.5311 40.8669 20.4182 40.8669C20.3052 40.8507 20.1761 40.8346 20.0632 40.8346C19.9825 40.8346 19.9019 40.8508 19.8212 40.8508C19.6921 40.8508 19.5792 40.867 19.4662 40.8993C19.3533 40.9156 19.2403 40.9317 19.1274 40.9641C19.0144 40.9964 18.9015 41.0288 18.7885 41.0774C18.6756 41.1259 18.5788 41.1744 18.4658 41.223C18.369 41.2715 18.2722 41.3362 18.1593 41.3848C14.3998 43.8443 16.6426 49.6047 19.208 51.2714C18.2399 51.4493 17.2557 51.6597 16.9814 51.8701C16.9653 51.8863 16.9492 51.9024 16.9492 51.9024C17.643 52.3231 18.3691 52.6791 19.1274 52.9865C20.16 53.3263 21.2572 53.6338 21.7413 53.7632V53.7794C23.0805 54.0545 24.4358 54.1516 25.8073 54.0707C32.9551 53.5691 38.8121 48.1161 39.8771 40.9317C39.9093 41.0773 39.9416 41.2068 39.9739 41.3524C40.0223 41.6437 40.0868 41.9511 40.1191 42.2586V42.2748C40.1513 42.4204 40.1675 42.566 40.1836 42.6955V42.7602C40.1998 42.9059 40.2159 43.0515 40.2159 43.1809C40.232 43.3589 40.2481 43.5369 40.2481 43.7149V43.9738C40.2481 44.0547 40.2643 44.1518 40.2643 44.2327C40.2643 44.3298 40.2481 44.4269 40.2481 44.524V44.7505C40.2481 44.8638 40.232 44.9608 40.232 45.0741C40.232 45.1389 40.232 45.2036 40.2158 45.2845C40.2158 45.3977 40.1996 45.511 40.1996 45.6404C40.1835 45.689 40.1835 45.7375 40.1835 45.7861C40.1673 45.9155 40.1512 46.0288 40.1351 46.1582C40.1351 46.2068 40.1351 46.2553 40.1189 46.3039C40.1027 46.4657 40.0705 46.6113 40.0543 46.7731V46.7893V46.8055C40.0221 46.9512 39.9898 47.113 39.9575 47.2586V47.3072C39.9253 47.4528 39.893 47.5984 39.8607 47.744C39.8607 47.7603 39.8446 47.7926 39.8446 47.8088C39.8123 47.9544 39.78 48.1 39.7316 48.2457V48.2942C39.6832 48.456 39.6348 48.6016 39.6025 48.7473C39.5864 48.7635 39.5864 48.7796 39.5864 48.7796C39.538 48.9414 39.4896 49.1032 39.4412 49.265C39.3766 49.4269 39.3282 49.5725 39.2637 49.7343C39.1991 49.8961 39.1507 50.0579 39.0862 50.2035C39.0216 50.3654 38.9571 50.511 38.8926 50.6728H38.8764C38.8118 50.8184 38.7473 50.9802 38.6666 51.1259C38.6505 51.1744 38.6344 51.2068 38.6182 51.2391C38.6021 51.2553 38.6021 51.2715 38.586 51.2877C37.5372 53.4074 35.9882 55.2682 34.0521 56.7245C33.923 56.8054 33.7939 56.9025 33.6648 56.9995C33.6326 57.0319 33.5841 57.0481 33.5519 57.0804C33.4389 57.1614 33.326 57.2423 33.1969 57.3232L33.2453 57.4203H33.2615C33.4873 57.3879 33.7132 57.3555 33.9391 57.3232H33.9553C34.3748 57.2584 34.7943 57.1775 35.2138 57.0966C35.3268 57.0804 35.4558 57.0481 35.5688 57.0157C35.6495 56.9995 35.714 56.9834 35.7947 56.9672C35.9076 56.951 36.0206 56.9186 36.1335 56.9024C36.2303 56.8701 36.3271 56.8539 36.4239 56.8215C38.0374 56.4332 39.6026 55.8992 41.1031 55.2682C38.5376 58.7794 35.1009 61.6111 31.0832 63.4719C32.9388 63.3425 34.7943 63.035 36.5853 62.5172C43.0877 60.5917 48.5575 56.2066 51.8329 50.3006C51.1714 54.0384 49.6869 57.5982 47.4926 60.705C49.0577 59.6694 50.4937 58.472 51.8006 57.1128C55.4149 53.3264 57.7867 48.5207 58.5935 43.359C59.1421 45.9156 59.3034 48.5531 59.0614 51.1582C70.7109 34.8639 60.0295 17.971 55.5601 13.5213C55.5439 13.4889 55.5278 13.4727 55.5278 13.4404C55.5117 13.4566 55.5117 13.4566 55.5117 13.4727C55.5117 13.4565 55.5117 13.4565 55.4955 13.4404C55.4955 13.6345 55.4794 13.8287 55.4633 14.0229C55.4149 14.395 55.3665 14.751 55.3019 15.107C55.2212 15.463 55.1244 15.8189 55.0276 16.1749C54.9147 16.5147 54.7856 16.8707 54.6404 17.2105C54.4952 17.5341 54.3338 17.8739 54.1563 18.1976C53.9788 18.505 53.7852 18.8286 53.5755 19.1199C53.3657 19.4273 53.1398 19.7186 52.9139 19.9936C52.6719 20.2849 52.4137 20.5438 52.1556 20.8027C51.9942 20.9483 51.849 21.0778 51.6877 21.2072C51.5586 21.3205 51.4456 21.4176 51.3166 21.5308C51.0261 21.7574 50.7357 21.9677 50.413 22.1619C50.1064 22.3561 49.7837 22.5502 49.461 22.712C49.1222 22.8739 48.7834 23.0195 48.4445 23.1651C48.1057 23.2946 47.7507 23.4078 47.3957 23.5049C47.0408 23.602 46.6697 23.6829 46.3147 23.7476C45.9436 23.8124 45.5725 23.8447 45.2175 23.8771C44.9594 23.8933 44.7012 23.9094 44.443 23.9094C44.0719 23.9094 43.7008 23.8771 43.3459 23.8447C42.9748 23.8123 42.6036 23.7638 42.2487 23.6828C41.8776 23.6181 41.5226 23.521 41.1676 23.4078H41.1515C41.5064 23.3754 41.8614 23.343 42.2164 23.2783C42.5875 23.2136 42.9425 23.1327 43.2974 23.0356C43.6524 22.9385 44.0074 22.8253 44.3462 22.6958C44.7012 22.5664 45.04 22.4046 45.3627 22.2427C45.7016 22.0809 46.0081 21.9029 46.3308 21.7088C46.6374 21.4984 46.9439 21.2881 47.2344 21.0615C47.5248 20.835 47.7991 20.5923 48.0573 20.3334C48.3316 20.0907 48.5736 19.8156 48.8156 19.5405C49.0576 19.2493 49.2835 18.958 49.4933 18.6667C49.5255 18.6182 49.5579 18.5535 49.5901 18.5049C49.7514 18.246 49.9128 17.9871 50.058 17.7282C50.2355 17.4046 50.3968 17.081 50.5421 16.7412C50.6873 16.4014 50.8164 16.0616 50.9293 15.7056C51.0422 15.3658 51.1229 15.0098 51.2036 14.6539C51.2682 14.2817 51.3327 13.9257 51.3649 13.5697C51.3972 13.1976 51.4295 12.8254 51.4295 12.4694C51.4295 12.2105 51.4133 11.9516 51.3973 11.6928C51.365 11.3206 51.3166 10.9646 51.2682 10.6086C51.2036 10.2365 51.123 9.88049 51.0262 9.5245C50.9132 9.18471 50.8003 8.82872 50.6712 8.48893C50.5421 8.14912 50.3808 7.80932 50.2194 7.4857C50.0419 7.16208 49.8644 6.83846 49.6708 6.53103C49.4611 6.22359 49.2513 5.93233 49.0254 5.64107C48.7834 5.36599 48.5414 5.09092 48.2832 4.81584C48.1541 4.6864 48.0089 4.54077 47.8637 4.41132C47.1376 3.84498 46.3793 3.31101 45.6209 2.82558C45.508 2.76084 45.4112 2.71232 45.2982 2.66377C44.7658 2.32397 44.2656 2.14589 43.7654 1.98408Z" fill="#E0234E"/>
</svg>
