<svg width="30" height="64" viewBox="0 0 30 64" fill="none" xmlns="http://www.w3.org/2000/svg">
<g clip-path="url(#clip0_327_1915)">
<path d="M20.7466 7.13325C18.0487 3.94632 15.7255 0.709589 15.2508 0.0373468C15.2009 -0.0124489 15.1259 -0.0124489 15.0759 0.0373468C14.6013 0.709589 12.278 3.94632 9.58009 7.13325C-13.5773 36.5376 13.2273 56.3813 13.2273 56.3813L13.4522 56.5306C13.652 59.5932 14.1516 64 14.1516 64H15.1509H16.1501C16.1501 64 16.6498 59.618 16.8496 56.5306L17.0744 56.3565C17.0994 56.3565 43.904 36.5376 20.7466 7.13325ZM15.1509 55.933C15.1509 55.933 13.9518 54.9123 13.6271 54.3893V54.3397L15.0759 22.3209C15.0759 22.2213 15.2258 22.2213 15.2258 22.3209L16.6747 54.3397V54.3893C16.35 54.9123 15.1509 55.933 15.1509 55.933Z" fill="#00684A"/>
</g>
<defs>
<clipPath id="clip0_327_1915">
<rect width="29.7674" height="64" fill="white" transform="translate(0.155273)"/>
</clipPath>
</defs>
</svg>
