<svg width="105" height="64" viewBox="0 0 105 64" fill="none" xmlns="http://www.w3.org/2000/svg">
<g clip-path="url(#clip0_327_1923)">
<mask id="mask0_327_1923" style="mask-type:luminance" maskUnits="userSpaceOnUse" x="0" y="0" width="105" height="63">
<path d="M0.116699 0H104.844V62.8364H0.116699V0Z" fill="white"/>
</mask>
<g mask="url(#mask0_327_1923)">
<path fill-rule="evenodd" clip-rule="evenodd" d="M52.4803 0C38.5167 0 29.7894 6.98182 26.2985 20.9455C31.5349 13.9636 37.644 11.3455 44.6258 13.0909C48.6093 14.0858 51.4563 16.9775 54.6078 20.1755C59.7414 25.3867 65.6837 31.4182 78.6621 31.4182C92.6258 31.4182 101.353 24.4364 104.844 10.4727C99.6076 17.4545 93.4985 20.0727 86.5167 18.3273C82.5332 17.3324 79.6861 14.4407 76.5346 11.2427C71.4011 6.03151 65.4588 0 52.4803 0ZM26.2985 31.4182C12.3349 31.4182 3.60761 38.4 0.116699 52.3636C5.35306 45.3818 11.4622 42.7636 18.444 44.5091C22.4275 45.5059 25.2745 48.3956 28.426 51.5937C33.5596 56.8048 39.5019 62.8364 52.4803 62.8364C66.444 62.8364 75.1712 55.8545 78.6621 41.8909C73.4258 48.8727 67.3167 51.4909 60.3349 49.7455C56.3514 48.7505 53.5043 45.8589 50.3528 42.6608C45.2192 37.4497 39.2769 31.4182 26.2985 31.4182Z" fill="#38BDF8"/>
</g>
</g>
<defs>
<clipPath id="clip0_327_1923">
<rect width="104.727" height="64" fill="white" transform="translate(0.116699)"/>
</clipPath>
</defs>
</svg>
