<svg width="65" height="64" viewBox="0 0 65 64" fill="none" xmlns="http://www.w3.org/2000/svg">
<g clip-path="url(#clip0_327_1939)">
<path d="M2.06057 40.4784C1.30603 37.7306 0.921875 34.8764 0.921875 32.0018C0.921875 18.879 9.16355 6.88003 21.4317 2.14832L23.0403 6.31128C12.4801 10.3852 5.38741 20.7086 5.38741 32.0018C5.38741 34.479 5.71665 36.9322 6.36488 39.2963L2.06057 40.4784Z" fill="#58D09E"/>
<path d="M21.2171 2.2505C23.8711 1.21286 26.6694 0.532471 29.5283 0.231986C42.5793 -1.13972 55.374 5.80258 61.3621 17.509L57.3901 19.5438C52.2347 9.46734 41.2265 3.4926 29.9951 4.67306C27.5315 4.93199 25.1261 5.51586 22.8427 6.40766L21.2171 2.2505Z" fill="#58D09E"/>
<path d="M47.5691 55.2685C56.2835 49.7137 61.1373 39.8557 60.2355 29.5475C59.9159 25.895 58.9022 22.4066 57.2275 19.1861L61.1845 17.1219C63.132 20.866 64.3117 24.9148 64.683 29.1584C65.7307 41.1339 60.0942 52.5821 49.9692 59.0351L47.5691 55.2685Z" fill="#F9FAFB"/>
<path d="M23.4247 25.3992C26.014 25.3992 28.1234 26.78 29.2072 29.1887L29.293 29.3772L33.6418 27.9004L33.5492 27.6778C31.8652 23.5764 27.9862 21.0272 23.4247 21.0272C20.2178 21.0272 17.6112 22.0552 15.4574 24.1658C13.3172 26.2627 12.2334 28.901 12.2334 32.0086C12.2334 35.0888 13.3172 37.7134 15.4574 39.8103C17.6112 41.921 20.2178 42.9488 23.4247 42.9488C27.9862 42.9488 31.8652 40.3996 33.5492 36.3018L33.6418 36.0791L29.286 34.5988L29.2038 34.7942C28.2331 37.1618 26.0724 38.5768 23.4247 38.5768C21.6206 38.5768 20.0978 37.9464 18.8904 36.706C17.6695 35.4486 17.0522 33.8691 17.0522 32.012C17.0522 30.1412 17.6558 28.5926 18.8904 27.2768C20.0943 26.0298 21.6206 25.3992 23.4247 25.3992Z" fill="#F9FAFB"/>
<path d="M50.6631 21.4316L44.4657 37.1138L38.227 21.4316H33.1235L41.8727 42.8358L35.6478 57.932L40.1099 58.8195L55.4854 21.4316H50.6631Z" fill="#F9FAFB"/>
<path d="M36.4464 55.9858L35.3592 58.6173C35.1431 59.1381 34.6492 59.4909 34.0936 59.5149C33.7267 59.5286 33.3563 59.5389 32.9824 59.5389C20.186 59.5321 8.86445 50.5106 6.05891 38.08L1.70312 39.0633C3.27738 46.0358 7.22846 52.3642 12.8292 56.887C18.4952 61.461 25.6324 63.9862 32.9344 64C32.9447 64 32.9995 64 32.9995 64C33.4283 64 33.8535 63.9897 34.2788 63.9726C36.5699 63.8766 38.6175 62.441 39.492 60.3133L40.9119 56.8733L36.4464 55.9858Z" fill="#F9FAFB"/>
</g>
<defs>
<clipPath id="clip0_327_1939">
<rect width="64" height="64" fill="white" transform="translate(0.921875)"/>
</clipPath>
</defs>
</svg>
