<svg width="70" height="64" viewBox="0 0 70 64" fill="none" xmlns="http://www.w3.org/2000/svg">
<g clip-path="url(#clip0_327_1876)">
<path d="M35.0854 38.7725C38.7577 38.7725 41.7347 35.7404 41.7347 32C41.7347 28.2597 38.7577 25.2275 35.0854 25.2275C31.4131 25.2275 28.436 28.2597 28.436 32C28.436 35.7404 31.4131 38.7725 35.0854 38.7725Z" fill="#087EA4"/>
<path d="M35.0851 47.238C53.4468 47.238 68.3319 40.4157 68.3319 31.9999C68.3319 23.5842 53.4468 16.7618 35.0851 16.7618C16.7235 16.7618 1.83838 23.5842 1.83838 31.9999C1.83838 40.4157 16.7235 47.238 35.0851 47.238Z" stroke="#087EA4" stroke-width="3"/>
<path d="M22.1286 39.619C31.3094 55.8152 44.5528 65.5336 51.7086 61.3257C58.8643 57.1178 57.2227 40.5771 48.0418 24.3809C38.861 8.18475 25.6176 -1.53366 18.4618 2.67422C11.3061 6.88211 12.9477 23.4228 22.1286 39.619Z" stroke="#087EA4" stroke-width="3"/>
<path d="M22.1284 24.3808C12.9475 40.577 11.3059 57.1177 18.4616 61.3256C25.6174 65.5335 38.8608 55.8151 48.0417 39.6189C57.2225 23.4228 58.8642 6.88205 51.7084 2.67416C44.5526 -1.53372 31.3092 8.18469 22.1284 24.3808Z" stroke="#087EA4" stroke-width="3"/>
</g>
<defs>
<clipPath id="clip0_327_1876">
<rect width="69.8182" height="64" fill="white" transform="translate(0.17627)"/>
</clipPath>
</defs>
</svg>
