<svg width="65" height="64" viewBox="0 0 65 64" fill="none" xmlns="http://www.w3.org/2000/svg">
<g clip-path="url(#clip0_327_1884)">
<mask id="mask0_327_1884" style="mask-type:alpha" maskUnits="userSpaceOnUse" x="0" y="0" width="65" height="64">
<path d="M32.583 64C50.2561 64 64.583 49.6731 64.583 32C64.583 14.3269 50.2561 0 32.583 0C14.9099 0 0.583008 14.3269 0.583008 32C0.583008 49.6731 14.9099 64 32.583 64Z" fill="black"/>
</mask>
<g mask="url(#mask0_327_1884)">
<path d="M32.5832 62.9333C49.6672 62.9333 63.5166 49.084 63.5166 32C63.5166 14.916 49.6672 1.06665 32.5832 1.06665C15.4992 1.06665 1.6499 14.916 1.6499 32C1.6499 49.084 15.4992 62.9333 32.5832 62.9333Z" fill="black" stroke="white" stroke-width="6"/>
<path d="M53.7416 56.0071L25.167 19.2H19.7832V44.7893H24.0903V24.6697L50.3606 58.6115C51.546 57.8183 52.6753 56.9475 53.7416 56.0071Z" fill="url(#paint0_linear_327_1884)"/>
<path d="M45.7388 19.2H41.4722V44.8H45.7388V19.2Z" fill="url(#paint1_linear_327_1884)"/>
</g>
</g>
<defs>
<linearGradient id="paint0_linear_327_1884" x1="39.3388" y1="41.4222" x2="51.961" y2="57.0666" gradientUnits="userSpaceOnUse">
<stop stop-color="white"/>
<stop offset="1" stop-color="white" stop-opacity="0"/>
</linearGradient>
<linearGradient id="paint1_linear_327_1884" x1="43.6055" y1="19.2" x2="43.534" y2="38" gradientUnits="userSpaceOnUse">
<stop stop-color="white"/>
<stop offset="1" stop-color="white" stop-opacity="0"/>
</linearGradient>
<clipPath id="clip0_327_1884">
<rect width="64" height="64" fill="white" transform="translate(0.583008)"/>
</clipPath>
</defs>
</svg>
