<svg width="65" height="64" viewBox="0 0 65 64" fill="none" xmlns="http://www.w3.org/2000/svg">
<path fill-rule="evenodd" clip-rule="evenodd" d="M11.7237 55.604L9.98767 9.37595C9.93301 7.84929 11.1063 6.55729 12.6303 6.46395L43.441 4.53729L45.7943 5.33329L48.8543 4.19862L51.9423 4.00529C53.493 3.90662 54.8303 5.08395 54.9303 6.63462C54.9343 6.69462 54.9357 6.75595 54.9357 6.81729V57.1866C54.9343 58.7426 53.6717 60.0026 52.1157 60.0013C52.0743 60.0013 52.033 60 51.993 59.9986L14.4117 58.3106C12.9477 58.2453 11.7797 57.0693 11.7237 55.604Z" fill="#FF4081"/>
<path fill-rule="evenodd" clip-rule="evenodd" d="M48.8514 4.19861L43.442 4.53461L43.1794 10.8826C43.17 11.1146 43.35 11.3093 43.582 11.3199C43.6794 11.3239 43.774 11.2946 43.8514 11.2359L46.3154 9.36528L48.398 11.0066C48.5794 11.1506 48.8447 11.1199 48.9874 10.9386C49.0487 10.8599 49.0807 10.7626 49.078 10.6626L48.854 4.19994L48.8514 4.19861ZM44.6407 25.4506C43.6527 26.2199 36.2714 26.7439 36.2714 25.6493C36.4287 21.4693 34.558 21.2866 33.5167 21.2866C32.5314 21.2866 30.8674 21.5839 30.8674 23.8239C30.8674 26.1053 33.298 27.3933 36.1514 28.9053C40.2034 31.0533 45.1114 33.6546 45.1114 40.1946C45.1114 46.4666 40.0154 49.9279 33.5194 49.9279C26.814 49.9279 20.9527 47.2146 21.614 37.8093C21.874 36.7066 30.4007 36.9693 30.4007 37.8093C30.294 41.6906 31.1794 42.8319 33.414 42.8319C35.13 42.8319 35.9087 41.8853 35.9087 40.2946C35.9087 37.8839 33.378 36.4613 30.4634 34.8266C26.518 32.6119 21.8754 30.0053 21.8754 24.0213C21.8754 18.0519 25.9807 14.0706 33.31 14.0706C40.6394 14.0706 44.6407 17.9919 44.6407 25.4506Z" fill="white"/>
</svg>
