<svg width="44" height="64" viewBox="0 0 44 64" fill="none" xmlns="http://www.w3.org/2000/svg">
<g clip-path="url(#clip0_327_1931)">
<path d="M21.8833 32C21.8833 29.1711 23.0071 26.458 25.0075 24.4576C27.0079 22.4572 29.721 21.3334 32.55 21.3334C35.3789 21.3334 38.0921 22.4572 40.0924 24.4576C42.0928 26.458 43.2166 29.1711 43.2166 32C43.2166 34.829 42.0928 37.5421 40.0924 39.5425C38.0921 41.5429 35.3789 42.6667 32.55 42.6667C29.721 42.6667 27.0079 41.5429 25.0075 39.5425C23.0071 37.5421 21.8833 34.829 21.8833 32Z" fill="#1ABCFE"/>
<path d="M0.549805 53.3333C0.549805 50.5043 1.67361 47.7912 3.674 45.7908C5.67439 43.7904 8.3875 42.6666 11.2165 42.6666H21.8831V53.3333C21.8831 56.1623 20.7593 58.8754 18.7589 60.8758C16.7586 62.8762 14.0454 64 11.2165 64C8.3875 64 5.67439 62.8762 3.674 60.8758C1.67361 58.8754 0.549805 56.1623 0.549805 53.3333Z" fill="#0ACF83"/>
<path d="M21.8833 0V21.3333H32.55C35.3789 21.3333 38.0921 20.2095 40.0924 18.2091C42.0928 16.2087 43.2166 13.4956 43.2166 10.6667C43.2166 7.83769 42.0928 5.12458 40.0924 3.12419C38.0921 1.12381 35.3789 0 32.55 0L21.8833 0Z" fill="#FF7262"/>
<path d="M0.549805 10.6667C0.549805 13.4956 1.67361 16.2087 3.674 18.2091C5.67439 20.2095 8.3875 21.3333 11.2165 21.3333H21.8831V0H11.2165C8.3875 0 5.67439 1.12381 3.674 3.12419C1.67361 5.12458 0.549805 7.83769 0.549805 10.6667Z" fill="#F24E1E"/>
<path d="M0.549805 32C0.549805 34.829 1.67361 37.5421 3.674 39.5425C5.67439 41.5429 8.3875 42.6667 11.2165 42.6667H21.8831V21.3334H11.2165C8.3875 21.3334 5.67439 22.4572 3.674 24.4576C1.67361 26.458 0.549805 29.1711 0.549805 32Z" fill="#A259FF"/>
</g>
<defs>
<clipPath id="clip0_327_1931">
<rect width="42.6667" height="64" fill="white" transform="translate(0.549805)"/>
</clipPath>
</defs>
</svg>
